<svg xmlns="http://www.w3.org/2000/svg" version="1.1" xmlns:xlink="http://www.w3.org/1999/xlink" xmlns:svgjs="http://svgjs.dev/svgjs" width="1000" height="532" viewBox="0 0 1000 532"><g transform="matrix(1,0,0,1,-0.6060606060606233,-0.5673399490741531)"><svg viewBox="0 0 396 211" data-background-color="#ffffff" preserveAspectRatio="xMidYMid meet" height="532" width="1000" xmlns="http://www.w3.org/2000/svg" xmlns:xlink="http://www.w3.org/1999/xlink"><g id="tight-bounds" transform="matrix(1,0,0,1,0.2400000000000091,0.2250164083733921)"><svg viewBox="0 0 395.52 210.54996718325322" height="210.54996718325322" width="395.52"><g><svg viewBox="0 0 397.4975999999999 211.60271701916946" height="210.54996718325322" width="395.52"><g><rect width="397.4975999999999" height="6.481111744968077" x="0" y="116.28755110998247" fill="#a437db" opacity="1" stroke-width="0" stroke="transparent" fill-opacity="1" class="rect-s$-0" data-fill-palette-color="secondary" rx="1%" id="s$-0" data-palette-color="#a437db"></rect></g><g transform="matrix(1,0,0,1,0.9887999999999693,139.73492396743242)"><svg viewBox="0 0 395.52 71.86779305173705" height="71.86779305173705" width="395.52"><g id="textblocktransform"><svg viewBox="0 0 395.52 71.86779305173705" height="71.86779305173705" width="395.52" id="textblock"><g><svg viewBox="0 0 395.52 71.86779305173705" height="71.86779305173705" width="395.52"><g transform="matrix(1,0,0,1,0,0)"><svg width="395.52" viewBox="1.5 -35.25 200.04 36.35108695652174" height="71.86779305173705" data-palette-color="#a437db"><path d="M1.5 0.05L16.15-35.25 17.8-35.25 32.55 0.05 28.2 0.05 23.5-11 10.45-11 5.85 0.05 1.5 0.05ZM21.9-14.7L17.65-25.4 17.25-26.7 16.95-27.85 16.6-26.75 16.2-25.4 12-14.7 21.9-14.7ZM52.1 1.1Q47.15 1.05 43.22-1.23 39.3-3.5 37.07-7.43 34.85-11.35 34.85-16.3L34.85-16.3 34.85-17.75Q34.85-22.5 37.12-26.48 39.4-30.45 43.32-32.77 47.25-35.1 51.9-35.1L51.9-35.1Q56.6-35.1 60.5-32.77 64.4-30.45 66.7-26.48 69-22.5 69-17.75L69-17.75 69-16.3Q69-11.35 66.77-7.35 64.55-3.35 60.7-1.1 56.85 1.15 52.1 1.1L52.1 1.1ZM51.95-2.7Q55.6-2.7 58.55-4.48 61.5-6.25 63.2-9.35 64.9-12.45 64.9-16.3L64.9-16.3 64.9-17.75Q64.9-21.4 63.15-24.53 61.4-27.65 58.42-29.48 55.45-31.3 51.85-31.3L51.85-31.3Q48.3-31.3 45.35-29.48 42.4-27.65 40.67-24.53 38.95-21.4 38.95-17.75L38.95-17.75 38.95-16.3Q38.95-12.45 40.65-9.35 42.35-6.25 45.32-4.48 48.3-2.7 51.95-2.7L51.95-2.7ZM76.65-34.3L80.75-34.3 80.75-19.15 82.25-19.2Q84.1-19.25 85.12-19.73 86.15-20.2 87.15-21.45L87.15-21.45Q88.55-23.1 90.45-26.5L90.45-26.5Q91.4-28.25 94.3-34.3L94.3-34.3 99.2-34.3Q98.2-32.55 96.25-28.7L96.25-28.7Q94.6-25.55 93.85-24.15L93.85-24.15 93.2-23.05Q92.25-21.35 91.3-20L91.3-20Q91.2-19.85 90.45-18.88 89.7-17.9 88.95-17.3L88.95-17.3 97.85-4.55Q98.3-3.95 98.6-3.73 98.9-3.5 99.25-3.5L99.25-3.5Q99.6-3.5 99.85-3.63 100.1-3.75 100.35-3.95L100.35-3.95 102.2-1Q101 0.2 99.2 0.2L99.2 0.2Q96.65 0.2 95.05-1.85L95.05-1.85 85.3-15.6Q83.5-15.1 80.85-15.1L80.85-15.1 80.85 0 76.65 0 76.65-34.3ZM121.04 0.5Q116.99 0.5 113.94-1.33 110.89-3.15 109.24-6.35 107.59-9.55 107.59-13.5L107.59-13.5 107.59-34.3 111.69-34.3 111.69-13.5Q111.69-10.4 112.89-8.05 114.09-5.7 116.22-4.42 118.34-3.15 121.14-3.15L121.14-3.15Q125.44-3.15 128.02-6 130.59-8.85 130.59-13.5L130.59-13.5 130.59-34.3 134.69-34.3 134.69-13.5Q134.69-9.35 132.94-6.18 131.19-3 128.09-1.25 124.99 0.5 121.04 0.5L121.04 0.5ZM167.34-3.65L169.14-0.5Q168.24 0.5 166.24 0.5L166.24 0.5Q163.64 0.5 162.04-1.6L162.04-1.6 156.24-9.55Q155.29-10.8 154.57-11.55 153.84-12.3 152.62-12.83 151.39-13.35 149.59-13.4L149.59-13.4 149.59-17.25 154.39-17.25Q157.34-17.25 159.04-18.98 160.74-20.7 160.74-23.7L160.74-23.7Q160.74-26.7 159.12-28.6 157.49-30.5 154.94-30.5L154.94-30.5 147.74-30.5 147.74 0.05 143.64 0.05 143.64-34.3 155.14-34.3Q157.84-34.3 160.07-32.9 162.29-31.5 163.57-29.18 164.84-26.85 164.84-24.2L164.84-24.2Q164.84-21 163.14-18.45 161.44-15.9 158.99-15.2L158.99-15.2Q157.79-14.85 154.99-14.85L154.99-14.85Q156.44-14.45 157.12-14.03 157.79-13.6 158.59-12.6L158.59-12.6 160.44-10.1Q164.34-4.85 164.84-4.2L164.84-4.2Q165.29-3.65 165.62-3.43 165.94-3.2 166.29-3.2L166.29-3.2Q166.89-3.2 167.34-3.65L167.34-3.65ZM170.49 0.05L185.14-35.25 186.79-35.25 201.54 0.05 197.19 0.05 192.49-11 179.44-11 174.84 0.05 170.49 0.05ZM190.89-14.7L186.64-25.4 186.24-26.7 185.94-27.85 185.59-26.75 185.19-25.4 180.99-14.7 190.89-14.7Z" opacity="1" transform="matrix(1,0,0,1,0,0)" fill="#a437db" class="undefined-text-0" data-fill-palette-color="primary" id="text-0"></path></svg></g></svg></g></svg></g></svg></g><g transform="matrix(1,0,0,1,141.08815500124967,0)"><svg viewBox="0 0 115.3212899975006 99.3212899975006" height="99.3212899975006" width="115.3212899975006"><g><svg xmlns="http://www.w3.org/2000/svg" xmlns:xlink="http://www.w3.org/1999/xlink" version="1.1" x="8" y="0" viewBox="5 5 90 90" enable-background="new 0 0 100 100" xml:space="preserve" height="99.3212899975006" width="99.3212899975006" class="icon-icon-0" data-fill-palette-color="accent" id="icon-0"><path fill="#a437db" d="M95 52c0-12.871-5.692-24.431-14.682-32.318C72.431 10.692 60.871 5 48 5 24.29 5 5 24.29 5 48c0 12.868 5.69 24.426 14.677 32.313C27.564 89.306 39.126 95 52 95c0.084 0 0.166-0.006 0.25-0.006S52.416 95 52.5 95C75.972 95 95 75.972 95 52.5c0-0.084-0.006-0.166-0.006-0.25S95 52.084 95 52zM21.828 73.371c-4.245-5.978-6.77-13.259-6.822-21.121 0.135-20.511 16.732-37.109 37.244-37.244 7.862 0.052 15.144 2.577 21.121 6.822C80.224 28.473 84.5 37.758 84.5 48c0 20.126-16.374 36.5-36.5 36.5C37.758 84.5 28.473 80.224 21.828 73.371zM6 48C6 24.841 24.841 6 48 6c9.858 0 18.926 3.422 26.1 9.13C67.637 11.242 60.076 9 52 9 28.29 9 9 28.29 9 52c0 8.074 2.241 15.633 6.127 22.095C9.421 66.923 6 57.856 6 48zM52 89c-10.08 0-19.227-4.055-25.905-10.615C32.269 82.854 39.838 85.5 48 85.5c20.678 0 37.5-16.822 37.5-37.5 0-8.162-2.646-15.731-7.115-21.905C84.945 32.773 89 41.92 89 52 89 72.402 72.402 89 52 89z" data-fill-palette-color="accent"></path></svg></g></svg></g><g><rect width="64.55503500124969" height="6.481111744968077" y="91.84017825253252" x="256.40944499875025" fill="#a437db" data-fill-palette-color="secondary"></rect><rect width="64.55503500124969" height="6.481111744968077" y="91.84017825253252" x="76.53311999999997" fill="#a437db" data-fill-palette-color="secondary"></rect></g></svg></g><defs></defs></svg><rect width="395.52" height="210.54996718325322" fill="none" stroke="none" visibility="hidden"></rect></g></svg></g></svg>